<svg id="Layer_3" height="512" viewBox="0 0 512 512" width="512" xmlns="http://www.w3.org/2000/svg" data-name="Layer 3"><circle cx="256" cy="248" fill="#087182" r="184"/><circle cx="156" cy="44" fill="#90e3f5" r="20"/><path d="m478.142 121.858 25.858 14.142-25.858 14.142-14.142 25.858-14.142-25.858-25.858-14.142 25.858-14.142 14.142-25.858z" fill="#90e3f5"/><path d="m62.142 353.858 25.858 14.142-25.858 14.142-14.142 25.858-14.142-25.858-25.858-14.142 25.858-14.142 14.142-25.858z" fill="#f69038"/><path d="m209.963 284.44a267.151 267.151 0 0 0 37.849-22.98c-35.14-83.745-10.4-187.186-8-196.743a183.148 183.148 0 0 0 -40.043 8.046c-2.95 10.103-33.107 118.959 10.194 211.677z" fill="#77d8e8"/><path d="m247.813 261.46c99.721-72.906 86.643-179.76 86.621-179.94a183.272 183.272 0 0 0 -78.434-17.52c-5.455 0-10.85.251-16.184.717-2.408 9.557-27.144 112.998 7.997 196.743z" fill="#90e3f5"/><path d="m164.305 303.137a334.649 334.649 0 0 0 45.658-18.7c-43.3-92.719-13.144-201.574-10.19-211.677a183.277 183.277 0 0 0 -47.84 23.487c-1.514 5.674-29.433 113.605 12.372 206.89z" fill="#90e3f5"/><path d="m381.682 113.629a184.315 184.315 0 0 0 -47.249-32.109c.022.18 13.1 107.035-86.621 179.94v.006-.006a267.151 267.151 0 0 1 -37.849 22.98 334.649 334.649 0 0 1 -45.658 18.7v.006-.006a461.713 461.713 0 0 1 -77.268 17.8 183.882 183.882 0 0 0 23.8 40.125c271.758-39.965 270.847-247.074 270.845-247.436z" fill="#77d8e8"/><path d="m277.172 361.725c21.143 16.282 47.221 29.493 79.177 40.513a184.929 184.929 0 0 0 38.263-33.238c-27.721-5.94-59.092-18.394-78.923-30.02a314.977 314.977 0 0 1 -38.517 22.745z" fill="#90e3f5"/><path d="m424 172.858s-8.309 96.874-108.311 166.122c19.831 11.626 51.2 24.08 78.923 30.02a184.149 184.149 0 0 0 29.388-196.142z" fill="#77d8e8"/><path d="m277.172 361.725a372.145 372.145 0 0 1 -50.972 20.775c22.718 17.793 48.972 31.163 84.952 41.09a183.167 183.167 0 0 0 45.2-21.349c-31.959-11.023-58.037-24.234-79.18-40.516z" fill="#77d8e8"/><path d="m276.3 361.066c.285.222.582.438.869.659 136.512-68.265 146.831-188.865 146.831-188.867a184.451 184.451 0 0 0 -42.318-59.229c0 .363.913 207.471-270.846 247.437a185.023 185.023 0 0 0 41.4 38.9c50.379-7.895 91.451-21.492 124.935-38.236-.286-.23-.582-.441-.871-.664z" fill="#1396a3"/><path d="m289.442 67.041a184.127 184.127 0 0 0 -215.933 204.613c148.191-32.97 199.827-150.874 215.933-204.613z" fill="#fafcfc" opacity=".3"/><circle cx="472" cy="40" fill="#f69038" r="32"/><path d="m440 40a31.947 31.947 0 0 0 1.62 10.052 32 32 0 0 0 48.951-36.1 31.991 31.991 0 0 0 -50.571 26.048z" fill="#fafcfc" opacity=".3"/><circle cx="40" cy="40" fill="#f69038" r="32"/><path d="m8 40a31.947 31.947 0 0 0 1.62 10.052 32 32 0 0 0 48.951-36.1 31.991 31.991 0 0 0 -50.571 26.048z" fill="#fafcfc" opacity=".3"/><path d="m40 128h16v16h-16z"/><path d="m80 480h16v16h-16z"/><path d="m448 352h16v16h-16z"/><path d="m128 44a28 28 0 1 0 28-28 28.031 28.031 0 0 0 -28 28zm40 0a12 12 0 1 1 -12-12 12.013 12.013 0 0 1 12 12z"/><path d="m507.839 128.981-23.8-13.019-13.019-23.8a8 8 0 0 0 -14.037 0l-13.019 23.8-23.8 13.019a8 8 0 0 0 0 14.037l23.8 13.019 13.019 23.8a8 8 0 0 0 14.037 0l13.019-23.8 23.8-13.019a8 8 0 0 0 0-14.037zm-33.539 14.143a8.007 8.007 0 0 0 -3.18 3.18l-7.12 13.024-7.124-13.028a8.007 8.007 0 0 0 -3.18-3.18l-13.024-7.12 13.024-7.124a8.007 8.007 0 0 0 3.18-3.18l7.124-13.024 7.124 13.024a8.007 8.007 0 0 0 3.18 3.18l13.024 7.124z"/><path d="m40.981 411.839a8 8 0 0 0 14.037 0l13.019-23.8 23.8-13.019a8 8 0 0 0 0-14.037l-23.8-13.019-13.019-23.8a8 8 0 0 0 -14.037 0l-13.019 23.8-23.8 13.019a8 8 0 0 0 0 14.037l23.8 13.019zm-3.281-50.963a8.007 8.007 0 0 0 3.18-3.18l7.12-13.024 7.124 13.028a8.007 8.007 0 0 0 3.18 3.18l13.024 7.12-13.028 7.124a8.007 8.007 0 0 0 -3.18 3.18l-7.12 13.024-7.124-13.028a8.007 8.007 0 0 0 -3.18-3.18l-13.024-7.12z"/><path d="m472 0a39.973 39.973 0 0 0 -33.356 62.042l-48.62 48.62a191.636 191.636 0 0 0 -268.048 0l-48.62-48.62a40.05 40.05 0 1 0 -11.314 11.314l48.942 48.944a191.64 191.64 0 0 0 7.678 259.726l-100.319 100.317 11.314 11.314 100.643-100.641a193.262 193.262 0 0 0 16.843 13.049c-12.806 5.105-28.792 14.146-33.893 28.611-3.848 10.91-.986 22.457 8.5 34.321 21.916 27.391 92.752 14.86 161.26 2.742 36.9-6.528 78.729-13.928 89.409-8.585 9.87 4.936 14.339 11.753 12.581 19.2-1.773 7.524-9.4 13.646-17 13.646-35.59 0-50.268-13.587-50.411-13.724l-5.589 5.724-5.657 5.657c.518.517 5.342 5.179 15.408 9.653 12.974 5.766 28.534 8.69 46.249 8.69 15.075 0 29.08-11.166 32.575-25.972 3.527-14.945-4.321-28.846-21-37.184-14.676-7.338-47.312-2.067-99.353 7.14-31.668 5.6-64.414 11.4-92.176 12.983-19.992 1.144-45.557.344-53.8-9.966-2.163-2.7-8.747-10.934-5.914-18.992 4.223-12.009 26.122-20.166 36.615-23.009a191.677 191.677 0 0 0 216.753-23.984l100.643 100.641 11.314-11.314-100.319-100.319a191.64 191.64 0 0 0 7.678-259.724l48.942-48.942a39.992 39.992 0 1 0 22.042-73.358zm-195.74 371.047c17.15 12.564 37.4 23.387 61.4 32.822a174.956 174.956 0 0 1 -26.717 11.338c-26.476-7.51-47.851-17.1-67.306-30.332q16.972-6.275 32.623-13.828zm16.074-8.265c4.9-2.687 9.7-5.456 14.371-8.343 3.216-1.987 6.362-4.037 9.473-6.118 17.505 9.865 40.752 19.1 63.091 25.168a177.339 177.339 0 0 1 -24.113 19.842c-24.715-8.793-45.425-18.855-62.822-30.549zm5.96-21.954c-39.736 24.551-88.2 41.584-144.065 50.69a177.448 177.448 0 0 1 -28.062-24.82c57.121-9.96 106.229-28.257 146.13-54.484 34.771-22.856 62.642-51.72 82.841-85.789a251.905 251.905 0 0 0 33.107-94.425 176.532 176.532 0 0 1 27.537 42.253c-1.262 9.376-8.166 49.188-38.351 92.609-20.272 29.161-46.897 54.047-79.136 73.966zm-148.301-176.628a367.46 367.46 0 0 1 8.923-62.923 175.769 175.769 0 0 1 29.334-15.7 391.972 391.972 0 0 0 -8.3 55.327c-5.007 64 7.251 110.394 19.691 139.656a328.365 328.365 0 0 1 -30.71 12.544c-18.987-46.153-20.856-95.23-18.938-128.904zm79.531-90.207a425.385 425.385 0 0 0 -7.432 55.138c-2.383 34.359-1.4 84.077 16 129.4-.877.607-1.739 1.226-2.628 1.824q-10.213 6.875-21.508 12.968c-19.568-46.539-20.742-96.393-18.09-130.776a366.592 366.592 0 0 1 10.436-63.393 174.557 174.557 0 0 1 23.223-5.163zm15.391 199.292c32.938-22.287 58.153-50.358 74.946-83.432a214.061 214.061 0 0 0 23.173-94.781 176.937 176.937 0 0 1 30.528 22.072c-.648 12.227-4.862 55.034-32.187 101.123-18.948 31.958-45.146 59.069-77.867 80.578-40.124 26.375-90.266 44.39-149.089 53.583a176.3 176.3 0 0 1 -15.572-25.248c58.524-9.78 107.626-27.885 146.069-53.897zm81.9-186.392c.646 13.079.473 53.442-21.588 96.443-12.791 24.932-30.834 46.806-53.759 65.241-25.323-70.642-10.242-153.284-5.191-176.3 3.218-.177 6.459-.277 9.723-.277a174.986 174.986 0 0 1 70.813 14.892zm-286.815-22.893a24 24 0 1 1 24-24 24.027 24.027 0 0 1 -24 24zm99.478 52.219a402.892 402.892 0 0 0 -5.435 46.655c-2.042 35.207-.118 86.484 19.647 135.218a457.841 457.841 0 0 1 -61.614 13.982 175.814 175.814 0 0 1 47.4-195.855zm35.28 287.871a468.576 468.576 0 0 0 50.342-12.851 221.126 221.126 0 0 0 56.028 30.96 176.723 176.723 0 0 1 -25.128 1.801 174.909 174.909 0 0 1 -81.242-19.91zm216.812-43.978a283.24 283.24 0 0 1 -60.843-22.136 274.189 274.189 0 0 0 59.841-61.976 252.871 252.871 0 0 0 35.418-73.634 175.8 175.8 0 0 1 -34.416 157.746zm80.43-296.112a24 24 0 1 1 24-24 24.027 24.027 0 0 1 -24 24z"/></svg>